<svg xmlns="http://www.w3.org/2000/svg" width="29.132" height="29.132" viewBox="0 0 29.132 29.132">
  <path id="Icon_awesome-info-circle" data-name="Icon awesome-info-circle" d="M15.128.562A14.566,14.566,0,1,0,29.694,15.128,14.568,14.568,0,0,0,15.128.562Zm0,6.461A2.467,2.467,0,1,1,12.662,9.49,2.467,2.467,0,0,1,15.128,7.023Zm3.289,14.918a.7.7,0,0,1-.7.7H12.544a.7.7,0,0,1-.7-.7v-1.41a.7.7,0,0,1,.7-.7h.7V16.068h-.7a.7.7,0,0,1-.7-.7v-1.41a.7.7,0,0,1,.7-.7H16.3a.7.7,0,0,1,.7.7v5.873h.7a.7.7,0,0,1,.7.7Z" transform="translate(-0.563 -0.563)"/>
</svg>
