<svg xmlns="http://www.w3.org/2000/svg" width="29.25" height="29.25" viewBox="0 0 29.25 29.25">
  <g id="Icon_ionic-ios-remove-circle-outline" data-name="Icon ionic-ios-remove-circle-outline" transform="translate(-3.375 -3.375)">
    <path id="Path_3" data-name="Path 3" d="M24.363,16.875H11.637A1.077,1.077,0,0,0,10.512,18a1.089,1.089,0,0,0,1.125,1.125H24.363a1.125,1.125,0,0,0,0-2.25Z" fill="#ad0000"/>
    <path id="Path_4" data-name="Path 4" d="M18,5.344A12.651,12.651,0,1,1,9.049,9.049,12.573,12.573,0,0,1,18,5.344m0-1.969A14.625,14.625,0,1,0,32.625,18,14.623,14.623,0,0,0,18,3.375Z" fill="#ad0000"/>
  </g>
</svg>
